<?xml version='1.0' encoding='utf-8'?>
<svg xmlns="http://www.w3.org/2000/svg" id="Layer_1" version="1.1" viewBox="0 0 283.46 283.46" width="283.46" height="283.46">
  <defs>
    <style>
      .st0 { fill: #39b777; }
      .st1 { stroke: #3e92c6; }
      .st1, .st2 { fill: none; stroke-miterlimit: 10; stroke-width: 1.5px; }
      .st2 { stroke: #39b777; }
    </style>
  </defs>
  <g>
    <path class="st2" d="M147.48,139.08c-.84.41-1.48.79-1.69.91-.94.55-1.35.75-1.76.99-3.48,2-5.78,4.72-5.78,4.72-1.4,1.66-2.61,3.08-3.03,5.35-.15.81-.49,3.27.85,5.64.37.65.89,1.56,1.97,2.18.94.55,1.88.6,2.24.63.27.02.94.04,1.84-.2,1.92-.5,3.24-1.73,4.09-2.54.66-.63,2.02-1.95,2.96-4.12.72-1.67.89-3.12.99-4.04.09-.8.08-1.36.07-2.48-.01-1.7-.18-2.9-.56-5.28-.15-.93-.35-1.99-.99-2.18-.12-.04-.28-.03-1.2.42Z" />
    <path class="st0" d="M142.71,150.27c-.83.27-1.21.99-2.05,2.35-.95,1.55-.71,1.04-1.41,2.22-.78,1.32-.73,1.37-1.6,2.87-.65,1.12-.99,1.63-1.64,2.83-.48.88-.72,1.33-.88,1.78-.1.29-.97,2.71-.17,3.23.29.19.5-.08,1.81,0,.41.03.55.06.67-.04.33-.27-.11-1.01-.17-1.9-.05-.76.2-1.29.67-2.3.59-1.26.98-1.46,2.28-3.36.68-1,.48-.83,1.52-2.42.5-.78.95-1.59,1.48-2.35.58-.83.99-1.3.92-1.98-.01-.11-.07-.7-.51-.93-.35-.19-.75-.06-.93,0Z" />
  </g>
  <path class="st1" d="M147.34,125.31c-2.35-3.38-4.38-6.3-4.88-7.7-.11-.31-.4-.51-.72-.52-.3,0-.62.2-.73.5-.5,1.32-2.43,4.09-4.67,7.3-5.12,7.35-12.12,17.41-12.12,23.96,0,9.66,7.86,17.52,17.51,17.52s17.51-7.86,17.51-17.52c0-6.44-6.88-16.33-11.9-23.55Z" />
</svg>