<?xml version="1.0" encoding="UTF-8"?>
<svg id="Layer_1" xmlns="http://www.w3.org/2000/svg" version="1.1" viewBox="0 0 283.46 283.46">
  <!-- Generator: Adobe Illustrator 29.5.1, SVG Export Plug-In . SVG Version: 2.1.0 Build 141)  -->
  <defs>
    <style>
      .st0 {
        fill: #39b777;
      }

      .st1 {
        fill: #3d92c6;
      }

      .st2 {
        fill: #32b273;
      }

      .st3 {
        isolation: isolate;
      }

      .st4 {
        stroke: #39b777;
      }

      .st4, .st5 {
        fill: none;
        stroke-miterlimit: 10;
        stroke-width: 1.5px;
      }

      .st5 {
        stroke: #3e92c6;
      }
    </style>
  </defs>
  <g class="st3">
    <g class="st3">
      <path class="st1" d="M74.36,122.2h8.51c3.75,0,6.58.56,8.47,1.68s2.84,3.03,2.84,5.73c0,1.16-.22,2.21-.67,3.13-.45.92-1.09,1.69-1.94,2.29-.85.6-1.9,1.02-3.14,1.25v.21c1.31.21,2.48.58,3.49,1.13s1.81,1.31,2.38,2.3c.58.99.86,2.24.86,3.76,0,1.85-.43,3.41-1.28,4.68-.86,1.27-2.06,2.24-3.63,2.89s-3.41.98-5.55.98h-10.33v-30.04ZM77.85,135.08h5.75c2.62,0,4.43-.43,5.43-1.29s1.51-2.12,1.51-3.78-.6-2.95-1.8-3.7c-1.2-.75-3.11-1.13-5.72-1.13h-5.18v9.9ZM77.85,138.02v11.24h6.25c2.67,0,4.56-.52,5.67-1.57s1.66-2.46,1.66-4.24c0-1.14-.25-2.11-.75-2.92-.5-.81-1.31-1.43-2.42-1.86-1.12-.43-2.61-.65-4.47-.65h-5.94Z"/>
      <path class="st1" d="M109.7,129.31c1.92,0,3.56.42,4.93,1.27,1.37.85,2.42,2.04,3.14,3.56s1.09,3.31,1.09,5.35v2.12h-15.55c.04,2.64.7,4.66,1.97,6.04s3.07,2.08,5.38,2.08c1.42,0,2.68-.13,3.78-.39,1.1-.26,2.23-.64,3.41-1.15v3c-1.14.51-2.26.88-3.38,1.11s-2.43.35-3.96.35c-2.16,0-4.05-.44-5.66-1.33-1.61-.88-2.86-2.18-3.75-3.89-.89-1.71-1.34-3.81-1.34-6.29s.41-4.52,1.22-6.3c.81-1.77,1.97-3.14,3.45-4.1,1.49-.96,3.24-1.44,5.25-1.44ZM109.66,132.1c-1.82,0-3.27.6-4.36,1.79-1.08,1.19-1.73,2.86-1.93,4.99h11.92c-.01-1.34-.22-2.52-.63-3.54-.4-1.02-1.02-1.82-1.84-2.38s-1.88-.85-3.16-.85Z"/>
      <path class="st1" d="M131.93,149.86c.56,0,1.14-.05,1.73-.14s1.07-.21,1.44-.35v2.65c-.4.18-.95.33-1.65.45-.71.12-1.39.19-2.06.19-1.19,0-2.27-.21-3.25-.63-.97-.42-1.75-1.13-2.33-2.13-.58-1-.87-2.38-.87-4.15v-13.36h-3.21v-1.66l3.23-1.33,1.36-4.89h2.05v5.22h6.6v2.67h-6.6v13.25c0,1.41.33,2.47.98,3.16.65.7,1.52,1.05,2.6,1.05Z"/>
      <path class="st1" d="M146.93,149.86c.56,0,1.14-.05,1.73-.14.59-.1,1.07-.21,1.44-.35v2.65c-.4.18-.95.33-1.65.45-.71.12-1.39.19-2.07.19-1.19,0-2.27-.21-3.25-.63-.97-.42-1.75-1.13-2.33-2.13-.58-1-.87-2.38-.87-4.15v-13.36h-3.21v-1.66l3.23-1.33,1.36-4.89h2.05v5.22h6.6v2.67h-6.6v13.25c0,1.41.33,2.47.98,3.16.65.7,1.52,1.05,2.6,1.05Z"/>
      <path class="st1" d="M163.33,129.31c1.92,0,3.56.42,4.93,1.27s2.42,2.04,3.14,3.56,1.09,3.31,1.09,5.35v2.12h-15.55c.04,2.64.7,4.66,1.97,6.04s3.07,2.08,5.38,2.08c1.42,0,2.69-.13,3.78-.39,1.1-.26,2.23-.64,3.41-1.15v3c-1.14.51-2.26.88-3.38,1.11s-2.43.35-3.96.35c-2.17,0-4.05-.44-5.66-1.33-1.61-.88-2.86-2.18-3.75-3.89-.89-1.71-1.33-3.81-1.33-6.29s.41-4.52,1.22-6.3c.82-1.77,1.97-3.14,3.45-4.1,1.49-.96,3.24-1.44,5.25-1.44ZM163.29,132.1c-1.82,0-3.28.6-4.36,1.79-1.08,1.19-1.73,2.86-1.93,4.99h11.92c-.01-1.34-.22-2.52-.63-3.54s-1.02-1.82-1.84-2.38c-.82-.57-1.88-.85-3.16-.85Z"/>
      <path class="st1" d="M188.52,129.31c.45,0,.92.02,1.42.07s.93.11,1.31.2l-.43,3.16c-.37-.1-.78-.17-1.23-.23-.45-.05-.88-.08-1.27-.08-.9,0-1.76.18-2.56.54-.8.36-1.5.88-2.11,1.56-.6.68-1.08,1.49-1.42,2.45s-.51,2.01-.51,3.17v12.08h-3.43v-22.52h2.84l.37,4.15h.14c.46-.83,1.03-1.6,1.69-2.29.66-.69,1.42-1.24,2.29-1.65.87-.41,1.84-.62,2.91-.62Z"/>
    </g>
    <g class="st3">
      <path class="st2" d="M200.62,137.26l7.99-15.06h3.76l-10.01,18.39v11.65h-3.49v-11.49l-10.03-18.55h3.82l7.95,15.06Z"/>
      <path class="st2" d="M235.39,140.94c0,1.85-.24,3.5-.72,4.95-.48,1.45-1.17,2.68-2.08,3.68-.9,1-2,1.76-3.28,2.29-1.28.53-2.73.79-4.35.79-1.51,0-2.89-.26-4.14-.79-1.25-.53-2.33-1.29-3.25-2.29s-1.62-2.23-2.12-3.68-.75-3.1-.75-4.95c0-2.47.42-4.56,1.25-6.3.84-1.73,2.03-3.05,3.59-3.96s3.41-1.37,5.56-1.37,3.85.46,5.39,1.38,2.74,2.24,3.6,3.98c.86,1.73,1.28,3.83,1.28,6.28ZM218.25,140.94c0,1.81.24,3.38.72,4.71.48,1.33,1.22,2.36,2.22,3.08,1,.73,2.29,1.09,3.86,1.09s2.85-.36,3.85-1.09c1.01-.73,1.75-1.75,2.23-3.08.48-1.33.72-2.9.72-4.71s-.24-3.35-.72-4.65c-.48-1.31-1.22-2.32-2.22-3.03-1-.71-2.29-1.07-3.88-1.07-2.34,0-4.06.77-5.15,2.32-1.09,1.55-1.63,3.69-1.63,6.43Z"/>
      <path class="st2" d="M259.88,129.72v22.52h-2.79l-.49-3.16h-.18c-.47.78-1.07,1.44-1.81,1.97-.74.53-1.57.93-2.5,1.2-.92.27-1.91.4-2.95.4-1.78,0-3.27-.29-4.48-.86-1.21-.58-2.11-1.47-2.72-2.67s-.91-2.75-.91-4.64v-14.75h3.45v14.51c0,1.88.42,3.28,1.27,4.2s2.14,1.39,3.88,1.39,3-.31,4-.95c.99-.63,1.71-1.56,2.15-2.78.44-1.23.66-2.73.66-4.51v-11.86h3.43Z"/>
    </g>
  </g>
  <g>
    <g>
      <path class="st4" d="M54.35,136.39c-.84.41-1.48.79-1.69.91-.94.55-1.35.75-1.76.99-3.48,2-5.78,4.72-5.78,4.72-1.4,1.66-2.61,3.08-3.03,5.35-.15.81-.49,3.27.85,5.64.37.65.89,1.56,1.97,2.18.94.55,1.88.6,2.24.63.27.02.94.04,1.84-.2,1.92-.5,3.24-1.73,4.09-2.54.66-.63,2.02-1.95,2.96-4.12.72-1.67.89-3.12.99-4.04.09-.8.08-1.36.07-2.48,0-1.7-.18-2.9-.56-5.28-.15-.93-.35-1.99-.99-2.18-.12-.04-.28-.03-1.2.42h0Z"/>
      <path class="st0" d="M49.58,147.58c-.83.27-1.21.99-2.05,2.35-.95,1.55-.71,1.04-1.41,2.22-.78,1.32-.73,1.37-1.6,2.87-.65,1.12-.99,1.63-1.64,2.83-.48.88-.72,1.33-.88,1.78-.1.29-.97,2.71-.17,3.23.29.19.5-.08,1.81,0,.41.03.55.06.67-.04.33-.27-.11-1.01-.17-1.9-.05-.76.2-1.29.67-2.3.59-1.26.98-1.46,2.28-3.36.68-1,.48-.83,1.52-2.42.5-.78.95-1.59,1.48-2.35.58-.83.99-1.3.92-1.98,0-.11-.07-.7-.51-.93-.35-.19-.75-.06-.93,0h0Z"/>
    </g>
    <path class="st5" d="M54.21,122.62c-2.35-3.38-4.38-6.3-4.88-7.7-.11-.31-.4-.51-.72-.52-.3,0-.62.2-.73.5-.5,1.32-2.43,4.09-4.67,7.3-5.12,7.35-12.12,17.41-12.12,23.96,0,9.66,7.86,17.52,17.51,17.52s17.51-7.86,17.51-17.52c0-6.44-6.88-16.33-11.9-23.55h0Z"/>
  </g>
</svg>